<?xml version="1.0" encoding="UTF-8" standalone="no"?>
<svg
   xmlns:dc="http://purl.org/dc/elements/1.1/"
   xmlns:cc="http://creativecommons.org/ns#"
   xmlns:rdf="http://www.w3.org/1999/02/22-rdf-syntax-ns#"
   xmlns:svg="http://www.w3.org/2000/svg"
   xmlns="http://www.w3.org/2000/svg"
   xmlns:sodipodi="http://sodipodi.sourceforge.net/DTD/sodipodi-0.dtd"
   xmlns:inkscape="http://www.inkscape.org/namespaces/inkscape"
   width="24"
   height="24"
   viewBox="0 0 24 24"
   id="svg8172"
   version="1.1"
   inkscape:version="0.48.5 r10040"
   sodipodi:docname="movie_24px.svg">
  <metadata
     id="metadata8182">
    <rdf:RDF>
      <cc:Work
         rdf:about="">
        <dc:format>image/svg+xml</dc:format>
        <dc:type
           rdf:resource="http://purl.org/dc/dcmitype/StillImage" />
        <dc:title></dc:title>
      </cc:Work>
    </rdf:RDF>
  </metadata>
  <defs
     id="defs8180" />
  <sodipodi:namedview
     pagecolor="#ffffff"
     bordercolor="#666666"
     borderopacity="1"
     objecttolerance="10"
     gridtolerance="10"
     guidetolerance="10"
     inkscape:pageopacity="0"
     inkscape:pageshadow="2"
     inkscape:window-width="728"
     inkscape:window-height="480"
     id="namedview8178"
     showgrid="false"
     inkscape:zoom="9.8333333"
     inkscape:cx="12"
     inkscape:cy="12"
     inkscape:window-x="221"
     inkscape:window-y="55"
     inkscape:window-maximized="0"
     inkscape:current-layer="svg8172" />
  <path
     d="M18 3v2h-2v-2h-8v2h-2v-2h-2v18h2v-2h2v2h8v-2h2v2h2v-18h-2zm-10 14h-2v-2h2v2zm0-4h-2v-2h2v2zm0-4h-2v-2h2v2zm10 8h-2v-2h2v2zm0-4h-2v-2h2v2zm0-4h-2v-2h2v2z"
     id="path8174"
     style="fill:#ffd180;fill-opacity:1" />
  <path
     d="M0 0h24v24h-24z"
     fill="none"
     id="path8176" />
</svg>
