<?xml version="1.0" encoding="UTF-8" standalone="no"?>
<svg
   xmlns:dc="http://purl.org/dc/elements/1.1/"
   xmlns:cc="http://creativecommons.org/ns#"
   xmlns:rdf="http://www.w3.org/1999/02/22-rdf-syntax-ns#"
   xmlns:svg="http://www.w3.org/2000/svg"
   xmlns="http://www.w3.org/2000/svg"
   xmlns:sodipodi="http://sodipodi.sourceforge.net/DTD/sodipodi-0.dtd"
   xmlns:inkscape="http://www.inkscape.org/namespaces/inkscape"
   width="48"
   height="48"
   viewBox="0 0 48 48"
   id="svg7565"
   version="1.1"
   inkscape:version="0.48.5 r10040"
   sodipodi:docname="movie_48px.svg">
  <metadata
     id="metadata7575">
    <rdf:RDF>
      <cc:Work
         rdf:about="">
        <dc:format>image/svg+xml</dc:format>
        <dc:type
           rdf:resource="http://purl.org/dc/dcmitype/StillImage" />
        <dc:title />
      </cc:Work>
    </rdf:RDF>
  </metadata>
  <defs
     id="defs7573" />
  <sodipodi:namedview
     pagecolor="#ffffff"
     bordercolor="#666666"
     borderopacity="1"
     objecttolerance="10"
     gridtolerance="10"
     guidetolerance="10"
     inkscape:pageopacity="0"
     inkscape:pageshadow="2"
     inkscape:window-width="728"
     inkscape:window-height="480"
     id="namedview7571"
     showgrid="false"
     inkscape:zoom="6.9532167"
     inkscape:cx="18.819759"
     inkscape:cy="20.187424"
     inkscape:window-x="305"
     inkscape:window-y="18"
     inkscape:window-maximized="0"
     inkscape:current-layer="svg7565" />
  <path
     d="M36 6v4h-4v-4h-16v4h-4v-4h-4v36h4v-4h4v4h16v-4h4v4h4v-36h-4zm-20 28h-4v-4h4v4zm0-8h-4v-4h4v4zm0-8h-4v-4h4v4zm20 16h-4v-4h4v4zm0-8h-4v-4h4v4zm0-8h-4v-4h4v4z"
     id="path7567"
     style="stroke:none;stroke-opacity:1;fill:#ffd54f;fill-opacity:1" />
  <path
     d="M0 0h48v48h-48z"
     fill="none"
     id="path7569" />
</svg>
